# xmcd CD Database Entry
#
# Track frame offsets:
# 150
# 25633
# 47589
# 70715
# 93188
# 113307
# 133857
# 159540
# 183894
# 204931
# 234091
# 256141
# 281218
# 304160
#
# Disc length: 4360 seconds
#
# Revision: 15
# Processed by: cddbd v1.4PL0 Copyright (c) Steve Scherf et al.
# Submitted via: tcd 2.0b
#
DISCID=a911060e
DTITLE=Various Artists/ Music Collection 1
DYEAR=1900
DGENRE=
TTITLE0=Ekadasi bajaraima
TTITLE1=Sunko bhau chha
TTITLE2=Aja timro kura chalyo
TTITLE3=Chokho chha hai
TTITLE4=Dui Ankhako Nani
TTITLE5=Ekatira mayalu
TTITLE6=Khola ko chiso pani
TTITLE7=Nisthuri mayalu
TTITLE8=Nisthuri le chhadera
TTITLE9=Malai Nepali maya
TTITLE10=Nisthuri le chhoddaima
TTITLE11=Nilkanda jhain man
TTITLE12=Sun pagalna bhanda
TTITLE13=Tara gandai
EXTD=
EXTT0=
EXTT1=
EXTT2=
EXTT3=
EXTT4=
EXTT5=
EXTT6=
EXTT7=
EXTT8=
EXTT9=
EXTT10=
EXTT11=
EXTT12=
EXTT13=
PLAYORDER=
